<svg xmlns="http://www.w3.org/2000/svg" width="2880" height="4928" viewBox="0 0 1440 2464" font-family="Golos Text, system-ui, sans-serif">
  <title>neighbro — screen 13, empty and edge states</title>
  <desc>Three cases where there is nothing to show. Each names the reason and offers a way out. Обе темы. Нарисовано по ../../docs/13-empty-and-edge-states_RU.md; цвета сняты с landing/index.html.</desc>
  <style>
    @import url("../../landing/fonts.css");
    /* Colour lives in style, never in a fill attribute: a class outranks the
       attribute, so a per-element fill="…" is thrown away and the label is
       painted in the class colour on top of its own ground. */
    .disp  { font-weight: 800; letter-spacing: -0.03em; fill: #ede8dd; }
    .body  { font-size: 13px; font-weight: 500; fill: #ede8dd; }
    .msg   { font-size: 14px; font-weight: 500; fill: #ede8dd; }
    .small { font-size: 11px; font-weight: 500; fill: #ede8dd; }
    .muted { font-size: 12px; font-weight: 500; fill: #928979; }
    .mono  { font-family: ui-monospace, SF Mono, Menlo, Consolas, monospace;
             font-size: 10px; fill: #928979; }
    .brow  { font-family: ui-monospace, SF Mono, Menlo, Consolas, monospace;
             font-size: 10px; letter-spacing: 2.2px; fill: #c6a24e; font-weight: 600; }
    .warn  { font-size: 11px; font-weight: 600; fill: #c6a24e; }
    .timer { font-family: ui-monospace, SF Mono, Menlo, Consolas, monospace;
             font-size: 10px; letter-spacing: 1.4px; fill: #c6a24e; font-weight: 600; }
    /* The same drawing again, on the light ground. Only the values differ — the
       geometry, the wording and the layout are one thing drawn twice. */
    .on-light .disp  { font-weight: 800; letter-spacing: -0.03em; fill: #181510; }
    .on-light .body  { font-size: 13px; font-weight: 500; fill: #181510; }
    .on-light .msg   { font-size: 14px; font-weight: 500; fill: #181510; }
    .on-light .small { font-size: 11px; font-weight: 500; fill: #181510; }
    .on-light .muted { font-size: 12px; font-weight: 500; fill: #5c5749; }
    .on-light .mono  { font-family: ui-monospace, SF Mono, Menlo, Consolas, monospace;
             font-size: 10px; fill: #5c5749; }
    .on-light .brow  { font-family: ui-monospace, SF Mono, Menlo, Consolas, monospace;
             font-size: 10px; letter-spacing: 2.2px; fill: #5c5749; font-weight: 600; }
    .on-light .warn  { font-size: 11px; font-weight: 600; fill: #735b25; }
    .on-light .timer { font-family: ui-monospace, SF Mono, Menlo, Consolas, monospace;
             font-size: 10px; letter-spacing: 1.4px; fill: #5c5749; font-weight: 600; }
  </style>
  <rect x="0" y="0" width="1440" height="2464" rx="0" fill="#0c0b09"/>
    <g transform="translate(48,40)">
      <rect x="0" y="0" width="1344" height="104" rx="16" fill="#c6a24e"/>
      <text x="28" y="46" class="disp" font-size="30" style="fill:#1a1509">Screen 13. empty and edge states</text>
      <text x="28" y="74" class="body" style="fill:#1a1509">Three cases where there is nothing to show. Each names the reason and offers a way out.</text>
      <text x="1316" y="46" class="mono" style="fill:#1a1509" text-anchor="end">design/interface/13-empty-states.svg</text>
      <text x="1316" y="74" class="mono" style="fill:#1a1509" text-anchor="end">×2 · обе темы · ../../docs/13-empty-and-edge-states_RU.md</text>
    </g>
    <g transform="translate(48,184)">
      <text x="0" y="16" class="disp" font-size="19">DARK · THE DEFAULT</text>
      <line x1="0" y1="26" x2="1344" y2="26" stroke="#3a331f" stroke-width="1"/>
    </g>
  <g transform="translate(48,256)">
    <text x="0" y="0" class="brow">QUOTA SPENT</text>
    <rect x="0" y="14" width="390" height="844" rx="46" fill="#14120e" stroke="#3a331f" stroke-width="1"/>
    <g transform="translate(8,22)">
      <rect x="0" y="0" width="374" height="828" rx="35" fill="#0c0b09"/>
      <text x="187" y="30" class="mono" text-anchor="middle">9:41</text>
      <rect x="16" y="44" width="128" height="30" rx="15" fill="#26221a" stroke="#3a331f" stroke-width="1"/>
      <path d="M32 52 q6 0 6 6 q0 5 -6 10 q-6 -5 -6 -10 q0 -6 6 -6 z" fill="none" stroke="#c6a24e" stroke-width="2"/>
      <text x="46" y="64" class="mono">kreuzberg · 1.2 km</text>
      <circle cx="166" cy="59" r="4" fill="#c6a24e"/>
      <text x="178" y="63" class="small">nearby</text>
      <rect x="258" y="44" width="100" height="30" rx="15" fill="#26221a" stroke="#3a331f" stroke-width="1"/>
      <circle cx="276" cy="59" r="7" fill="none" stroke="#928979" stroke-width="1"/>
      <text x="292" y="63" class="small">You</text>
      <line x1="0" y1="96" x2="374" y2="96" stroke="#3a331f" stroke-width="1"/>
      <rect x="16" y="240" width="342" height="140" rx="16" fill="none" stroke="#928979" stroke-width="2" stroke-dasharray="6 5"/>
      <text x="187" y="278" class="disp" font-size="18" text-anchor="middle">Quota spent</text>
      <text x="187" y="310" class="muted" text-anchor="middle">Five messages are already out there.</text>
      <text x="187" y="330" class="muted" text-anchor="middle">Room frees as the old ones go.</text>
      <rect x="74" y="324" width="220" height="44" rx="12" fill="#c6a24e"/>
      <text x="184.0" y="352" class="small" style="fill:#1a1509;font-weight:700" text-anchor="middle">My messages</text>
    </g>
  </g>
  <g transform="translate(525,256)">
    <text x="0" y="0" class="brow">NOBODY NEARBY</text>
    <rect x="0" y="14" width="390" height="844" rx="46" fill="#14120e" stroke="#3a331f" stroke-width="1"/>
    <g transform="translate(8,22)">
      <rect x="0" y="0" width="374" height="828" rx="35" fill="#0c0b09"/>
      <text x="187" y="30" class="mono" text-anchor="middle">9:41</text>
      <rect x="16" y="44" width="128" height="30" rx="15" fill="#26221a" stroke="#3a331f" stroke-width="1"/>
      <path d="M32 52 q6 0 6 6 q0 5 -6 10 q-6 -5 -6 -10 q0 -6 6 -6 z" fill="none" stroke="#c6a24e" stroke-width="2"/>
      <text x="46" y="64" class="mono">kreuzberg · 1.2 km</text>
      <circle cx="166" cy="59" r="4" fill="#c6a24e"/>
      <text x="178" y="63" class="small">nearby</text>
      <rect x="258" y="44" width="100" height="30" rx="15" fill="#26221a" stroke="#3a331f" stroke-width="1"/>
      <circle cx="276" cy="59" r="7" fill="none" stroke="#928979" stroke-width="1"/>
      <text x="292" y="63" class="small">You</text>
      <line x1="0" y1="96" x2="374" y2="96" stroke="#3a331f" stroke-width="1"/>
      <rect x="16" y="240" width="342" height="140" rx="16" fill="none" stroke="#928979" stroke-width="2" stroke-dasharray="6 5"/>
      <text x="187" y="278" class="disp" font-size="18" text-anchor="middle">Quiet nearby</text>
      <text x="187" y="310" class="muted" text-anchor="middle">Nobody within this radius.</text>
      <text x="187" y="330" class="muted" text-anchor="middle">Try widening the circle.</text>
      <rect x="74" y="324" width="220" height="44" rx="12" fill="#c6a24e"/>
      <text x="184.0" y="352" class="small" style="fill:#1a1509;font-weight:700" text-anchor="middle">Widen the radius</text>
    </g>
  </g>
  <g transform="translate(1002,256)">
    <text x="0" y="0" class="brow">NO LOCATION</text>
    <rect x="0" y="14" width="390" height="844" rx="46" fill="#14120e" stroke="#3a331f" stroke-width="1"/>
    <g transform="translate(8,22)">
      <rect x="0" y="0" width="374" height="828" rx="35" fill="#0c0b09"/>
      <text x="187" y="30" class="mono" text-anchor="middle">9:41</text>
      <rect x="16" y="44" width="128" height="30" rx="15" fill="#26221a" stroke="#3a331f" stroke-width="1"/>
      <path d="M32 52 q6 0 6 6 q0 5 -6 10 q-6 -5 -6 -10 q0 -6 6 -6 z" fill="none" stroke="#c6a24e" stroke-width="2"/>
      <text x="46" y="64" class="mono">kreuzberg · 1.2 km</text>
      <circle cx="166" cy="59" r="4" fill="#c6a24e"/>
      <text x="178" y="63" class="small">nearby</text>
      <rect x="258" y="44" width="100" height="30" rx="15" fill="#26221a" stroke="#3a331f" stroke-width="1"/>
      <circle cx="276" cy="59" r="7" fill="none" stroke="#928979" stroke-width="1"/>
      <text x="292" y="63" class="small">You</text>
      <line x1="0" y1="96" x2="374" y2="96" stroke="#3a331f" stroke-width="1"/>
      <rect x="16" y="240" width="342" height="140" rx="16" fill="none" stroke="#928979" stroke-width="2" stroke-dasharray="6 5"/>
      <text x="187" y="278" class="disp" font-size="18" text-anchor="middle">We do not know where you are</text>
      <text x="187" y="310" class="muted" text-anchor="middle">Location access was not given.</text>
      <text x="187" y="330" class="muted" text-anchor="middle">The place can be set by hand.</text>
      <rect x="74" y="324" width="220" height="44" rx="12" fill="#c6a24e"/>
      <text x="184.0" y="352" class="small" style="fill:#1a1509;font-weight:700" text-anchor="middle">Point at the map</text>
    </g>
  </g>
    <g transform="translate(48,1194)">
      <text x="0" y="16" class="disp" font-size="19">LIGHT</text>
      <line x1="0" y1="26" x2="1344" y2="26" stroke="#1e1b14" stroke-width="1"/>
    </g>
  <rect x="0" y="1238" width="1440" height="946" fill="#e9e6dd"/>
  <g class="on-light">
  <g transform="translate(48,1266)">
    <text x="0" y="0" class="brow">QUOTA SPENT</text>
    <rect x="0" y="14" width="390" height="844" rx="46" fill="#f4f1e8" stroke="#1e1b14" stroke-width="1"/>
    <g transform="translate(8,22)">
      <rect x="0" y="0" width="374" height="828" rx="35" fill="#e9e6dd"/>
      <text x="187" y="30" class="mono" text-anchor="middle">9:41</text>
      <rect x="16" y="44" width="128" height="30" rx="15" fill="#ded9cc" stroke="#1e1b14" stroke-width="1"/>
      <path d="M32 52 q6 0 6 6 q0 5 -6 10 q-6 -5 -6 -10 q0 -6 6 -6 z" fill="none" stroke="#c6a24e" stroke-width="2"/>
      <text x="46" y="64" class="mono">kreuzberg · 1.2 km</text>
      <circle cx="166" cy="59" r="4" fill="#c6a24e"/>
      <text x="178" y="63" class="small">nearby</text>
      <rect x="258" y="44" width="100" height="30" rx="15" fill="#ded9cc" stroke="#1e1b14" stroke-width="1"/>
      <circle cx="276" cy="59" r="7" fill="none" stroke="#5c5749" stroke-width="1"/>
      <text x="292" y="63" class="small">You</text>
      <line x1="0" y1="96" x2="374" y2="96" stroke="#1e1b14" stroke-width="1"/>
      <rect x="16" y="240" width="342" height="140" rx="16" fill="none" stroke="#5c5749" stroke-width="2" stroke-dasharray="6 5"/>
      <text x="187" y="278" class="disp" font-size="18" text-anchor="middle">Quota spent</text>
      <text x="187" y="310" class="muted" text-anchor="middle">Five messages are already out there.</text>
      <text x="187" y="330" class="muted" text-anchor="middle">Room frees as the old ones go.</text>
      <rect x="74" y="324" width="220" height="44" rx="12" fill="#c6a24e"/>
      <text x="184.0" y="352" class="small" style="fill:#1a1509;font-weight:700" text-anchor="middle">My messages</text>
    </g>
  </g>
  <g transform="translate(525,1266)">
    <text x="0" y="0" class="brow">NOBODY NEARBY</text>
    <rect x="0" y="14" width="390" height="844" rx="46" fill="#f4f1e8" stroke="#1e1b14" stroke-width="1"/>
    <g transform="translate(8,22)">
      <rect x="0" y="0" width="374" height="828" rx="35" fill="#e9e6dd"/>
      <text x="187" y="30" class="mono" text-anchor="middle">9:41</text>
      <rect x="16" y="44" width="128" height="30" rx="15" fill="#ded9cc" stroke="#1e1b14" stroke-width="1"/>
      <path d="M32 52 q6 0 6 6 q0 5 -6 10 q-6 -5 -6 -10 q0 -6 6 -6 z" fill="none" stroke="#c6a24e" stroke-width="2"/>
      <text x="46" y="64" class="mono">kreuzberg · 1.2 km</text>
      <circle cx="166" cy="59" r="4" fill="#c6a24e"/>
      <text x="178" y="63" class="small">nearby</text>
      <rect x="258" y="44" width="100" height="30" rx="15" fill="#ded9cc" stroke="#1e1b14" stroke-width="1"/>
      <circle cx="276" cy="59" r="7" fill="none" stroke="#5c5749" stroke-width="1"/>
      <text x="292" y="63" class="small">You</text>
      <line x1="0" y1="96" x2="374" y2="96" stroke="#1e1b14" stroke-width="1"/>
      <rect x="16" y="240" width="342" height="140" rx="16" fill="none" stroke="#5c5749" stroke-width="2" stroke-dasharray="6 5"/>
      <text x="187" y="278" class="disp" font-size="18" text-anchor="middle">Quiet nearby</text>
      <text x="187" y="310" class="muted" text-anchor="middle">Nobody within this radius.</text>
      <text x="187" y="330" class="muted" text-anchor="middle">Try widening the circle.</text>
      <rect x="74" y="324" width="220" height="44" rx="12" fill="#c6a24e"/>
      <text x="184.0" y="352" class="small" style="fill:#1a1509;font-weight:700" text-anchor="middle">Widen the radius</text>
    </g>
  </g>
  <g transform="translate(1002,1266)">
    <text x="0" y="0" class="brow">NO LOCATION</text>
    <rect x="0" y="14" width="390" height="844" rx="46" fill="#f4f1e8" stroke="#1e1b14" stroke-width="1"/>
    <g transform="translate(8,22)">
      <rect x="0" y="0" width="374" height="828" rx="35" fill="#e9e6dd"/>
      <text x="187" y="30" class="mono" text-anchor="middle">9:41</text>
      <rect x="16" y="44" width="128" height="30" rx="15" fill="#ded9cc" stroke="#1e1b14" stroke-width="1"/>
      <path d="M32 52 q6 0 6 6 q0 5 -6 10 q-6 -5 -6 -10 q0 -6 6 -6 z" fill="none" stroke="#c6a24e" stroke-width="2"/>
      <text x="46" y="64" class="mono">kreuzberg · 1.2 km</text>
      <circle cx="166" cy="59" r="4" fill="#c6a24e"/>
      <text x="178" y="63" class="small">nearby</text>
      <rect x="258" y="44" width="100" height="30" rx="15" fill="#ded9cc" stroke="#1e1b14" stroke-width="1"/>
      <circle cx="276" cy="59" r="7" fill="none" stroke="#5c5749" stroke-width="1"/>
      <text x="292" y="63" class="small">You</text>
      <line x1="0" y1="96" x2="374" y2="96" stroke="#1e1b14" stroke-width="1"/>
      <rect x="16" y="240" width="342" height="140" rx="16" fill="none" stroke="#5c5749" stroke-width="2" stroke-dasharray="6 5"/>
      <text x="187" y="278" class="disp" font-size="18" text-anchor="middle">We do not know where you are</text>
      <text x="187" y="310" class="muted" text-anchor="middle">Location access was not given.</text>
      <text x="187" y="330" class="muted" text-anchor="middle">The place can be set by hand.</text>
      <rect x="74" y="324" width="220" height="44" rx="12" fill="#c6a24e"/>
      <text x="184.0" y="352" class="small" style="fill:#1a1509;font-weight:700" text-anchor="middle">Point at the map</text>
    </g>
  </g>
  </g>
    <g transform="translate(48,2204)">
      <text x="0" y="16" class="disp" font-size="19">Left open by the screen’s description</text>
      <line x1="0" y1="26" x2="1344" y2="26" stroke="#3a331f" stroke-width="1"/>
    </g>
    <g transform="translate(48,2244)">
      <rect x="0" y="0" width="1344" height="152" rx="16" fill="#14120e" stroke="#c6a24e" stroke-width="2"/>
      <text x="24" y="34" class="warn">Three questions the description leaves open.</text>
      <text x="24" y="58" class="body">The exact words and look of each state are undecided — these are proposed, not settled.</text>
      <text x="24" y="82" class="body">Whether the quota refills with time or only as old messages go is undecided.</text>
      <text x="24" y="106" class="body">What happens after location is refused is undecided: ask again, or hand entry only.</text>
    </g>
    <g transform="translate(48,2404)">
      <rect x="0" y="-8" width="1344" height="36" rx="10" fill="#26221a" stroke="#3a331f" stroke-width="1"/>
      <text x="24" y="16" class="mono">Цвета — landing/index.html, шрифт — landing/fonts.css. Брат: sosed.place/design/interface/</text>
    </g>
</svg>
